<svg width="20" height="20" viewBox="0 0 20 20" fill="none" xmlns="http://www.w3.org/2000/svg">
<g clip-path="url(#clip0)">
<path d="M19.703 7.22909C19.4389 6.89776 19.0427 6.70768 18.6159 6.70768H14.7641L12.6755 1.92514C12.546 1.62862 12.2006 1.49311 11.9041 1.62268C11.6075 1.75217 11.4721 2.0976 11.6016 2.39417L13.4854 6.70772H6.51437L8.39816 2.39417C8.52765 2.0976 8.39226 1.75221 8.0957 1.62268C7.79918 1.49311 7.45375 1.62854 7.32425 1.92514L5.23562 6.70772H1.3839C0.957107 6.70772 0.560896 6.89776 0.296794 7.22913C0.0375366 7.55444 -0.0581274 7.97264 0.0343335 8.37663L2.09125 17.361C2.23488 17.9883 2.78984 18.4265 3.44082 18.4265H16.5589C17.2099 18.4265 17.7649 17.9883 17.9085 17.361L19.9654 8.37659C20.0579 7.9726 19.9622 7.5544 19.703 7.22909ZM16.5589 17.2546H3.44082C3.34133 17.2546 3.25418 17.1893 3.23359 17.0994L1.17668 8.1151C1.16054 8.0446 1.18761 7.99155 1.21324 7.95948C1.23699 7.92964 1.29078 7.8796 1.3839 7.8796H4.72386L4.57039 8.23104C4.4409 8.5276 4.57629 8.87299 4.87285 9.00253C4.94918 9.03589 5.02871 9.05167 5.10703 9.05167C5.33289 9.05167 5.54812 8.9203 5.64429 8.7001L6.00261 7.87967H13.9972L14.3555 8.7001C14.4517 8.92034 14.667 9.05167 14.8928 9.05167C14.9711 9.05167 15.0507 9.03589 15.127 9.00253C15.4236 8.87303 15.559 8.5276 15.4295 8.23104L15.276 7.8796H18.6159C18.7091 7.8796 18.7628 7.92964 18.7866 7.95948C18.8122 7.99159 18.8393 8.04464 18.8232 8.11507L16.7662 17.0994C16.7456 17.1893 16.6584 17.2546 16.5589 17.2546Z" fill="white"/>
<path d="M6.48438 10.4186C6.16078 10.4186 5.89844 10.681 5.89844 11.0046V15.3014C5.89844 15.625 6.16078 15.8874 6.48438 15.8874C6.80797 15.8874 7.07031 15.625 7.07031 15.3014V11.0046C7.07031 10.681 6.80801 10.4186 6.48438 10.4186Z" fill="white"/>
<path d="M10 10.4186C9.67641 10.4186 9.41406 10.681 9.41406 11.0046V15.3014C9.41406 15.625 9.67641 15.8874 10 15.8874C10.3236 15.8874 10.5859 15.625 10.5859 15.3014V11.0046C10.5859 10.681 10.3236 10.4186 10 10.4186Z" fill="white"/>
<path d="M13.5156 10.4186C13.192 10.4186 12.9297 10.681 12.9297 11.0046V15.3014C12.9297 15.625 13.192 15.8874 13.5156 15.8874C13.8392 15.8874 14.1016 15.625 14.1016 15.3014V11.0046C14.1015 10.681 13.8392 10.4186 13.5156 10.4186Z" fill="white"/>
</g>
<defs>
<clipPath id="clip0">
<rect width="20" height="20" fill="white"/>
</clipPath>
</defs>
</svg>
