<svg width="28" height="28" viewBox="0 0 28 28" fill="none" xmlns="http://www.w3.org/2000/svg">
<path d="M14 0C6.28041 0 0 6.28041 0 14C0 21.7196 6.28041 28 14 28C21.7196 28 28 21.7196 28 14C27.9994 6.28041 21.7196 0 14 0ZM14 25.7435C7.52454 25.7435 2.25651 20.4754 2.25651 13.9995C2.25651 7.52403 7.52454 2.256 14 2.256C20.4754 2.256 25.7435 7.52454 25.7435 14C25.7435 20.4754 20.4754 25.7435 14 25.7435Z" fill="#5AA1E1"/>
<path d="M18.8516 9.33026L12.3169 15.8655L9.92563 13.4743C9.48529 13.0335 8.77098 13.0335 8.33063 13.4743C7.88979 13.9146 7.88979 14.6289 8.33063 15.0694L11.5196 18.2583C11.7398 18.4785 12.0288 18.589 12.3173 18.589C12.6059 18.589 12.8944 18.4789 13.1146 18.2583L20.4471 10.9257C20.8874 10.4849 20.8874 9.7711 20.4471 9.33026C20.0062 8.88991 19.2925 8.88991 18.8516 9.33026Z" fill="#5AA1E1"/>
</svg>
