<svg width="10" height="10" viewBox="0 0 10 10" fill="none" xmlns="http://www.w3.org/2000/svg">
<path d="M9.16675 5.00008C9.05624 5.00008 8.95026 5.04398 8.87212 5.12212C8.79398 5.20026 8.75008 5.30624 8.75008 5.41675V8.33341C8.75008 8.56362 8.56362 8.75008 8.33342 8.75008H1.66675C1.43654 8.75008 1.25008 8.56362 1.25008 8.33341V1.66675C1.25008 1.43654 1.43654 1.25008 1.66675 1.25008H4.58342C4.69392 1.25008 4.7999 1.20618 4.87804 1.12804C4.95618 1.0499 5.00008 0.943922 5.00008 0.833415C5.00008 0.722908 4.95618 0.616927 4.87804 0.538787C4.7999 0.460647 4.69392 0.416748 4.58342 0.416748H1.66675C0.976436 0.416748 0.416748 0.976435 0.416748 1.66675V8.33341C0.416748 9.02373 0.976436 9.58341 1.66675 9.58341H8.33342C9.02373 9.58341 9.58342 9.02373 9.58342 8.33341V5.41675C9.58342 5.30624 9.53952 5.20026 9.46138 5.12212C9.38324 5.04398 9.27726 5.00008 9.16675 5.00008Z" fill="#23527C"/>
<path d="M9.58281 0.82904C9.5826 0.803089 9.57999 0.777214 9.57499 0.751748C9.5726 0.740081 9.56822 0.729248 9.56489 0.717894C9.56072 0.703102 9.55718 0.688206 9.55124 0.673831C9.54603 0.661123 9.53874 0.649769 9.53229 0.63779C9.52583 0.625811 9.52051 0.613415 9.51281 0.601956C9.50007 0.583536 9.48589 0.566155 9.47041 0.549977C9.46708 0.546331 9.46468 0.542165 9.46114 0.538727C9.45791 0.535498 9.45416 0.533415 9.45072 0.53029C9.43427 0.514414 9.41653 0.499921 9.3977 0.486956C9.38645 0.479456 9.37416 0.474144 9.36239 0.46779C9.35031 0.461331 9.33864 0.453936 9.32593 0.448623C9.31145 0.442581 9.29645 0.439144 9.28145 0.434873C9.27031 0.431644 9.25958 0.427269 9.24801 0.424977C9.22117 0.419529 9.19385 0.416772 9.16645 0.416748H6.66656C6.55605 0.416748 6.45007 0.460647 6.37193 0.538787C6.29379 0.616927 6.24989 0.722908 6.24989 0.833415C6.24989 0.943922 6.29379 1.0499 6.37193 1.12804C6.45007 1.20618 6.55605 1.25008 6.66656 1.25008H8.16062L4.74708 4.66362C4.70728 4.70206 4.67554 4.74804 4.6537 4.79887C4.63186 4.84971 4.62037 4.90438 4.61989 4.95971C4.61941 5.01503 4.62995 5.0699 4.6509 5.1211C4.67185 5.17231 4.70279 5.21883 4.74191 5.25795C4.78103 5.29708 4.82756 5.32802 4.87876 5.34897C4.92997 5.36992 4.98484 5.38046 5.04016 5.37998C5.09549 5.3795 5.15016 5.368 5.201 5.34617C5.25183 5.32433 5.29781 5.29259 5.33624 5.25279L8.74989 1.83925V3.33342C8.74989 3.44392 8.79379 3.5499 8.87193 3.62804C8.95007 3.70618 9.05605 3.75008 9.16656 3.75008C9.27706 3.75008 9.38304 3.70618 9.46118 3.62804C9.53932 3.5499 9.58322 3.44392 9.58322 3.33342V0.833415C9.58322 0.831956 9.58281 0.830602 9.58281 0.82904Z" fill="#23527C"/>
</svg>
