<svg width="20" height="20" viewBox="0 0 20 20" fill="none" xmlns="http://www.w3.org/2000/svg">
<path d="M16.6389 3.47738C15.1121 1.26762 12.6923 0 10.0004 0C7.30859 0 4.88878 1.26762 3.36194 3.47738C1.84261 5.67598 1.49179 8.45945 2.42163 10.9186C2.67034 11.5902 3.06569 12.2427 3.5939 12.8541L9.46804 19.7538C9.60089 19.91 9.79554 20 10.0004 20C10.2053 20 10.4 19.91 10.5328 19.7538L16.4053 12.8559C16.9359 12.241 17.3307 11.5893 17.5773 10.9231C18.5091 8.45945 18.1582 5.67598 16.6389 3.47738ZM16.2678 10.4333C16.0776 10.9473 15.7671 11.4555 15.3454 11.9443C15.3442 11.9454 15.3431 11.9466 15.3421 11.948L10.0004 18.2221L4.65542 11.9441C4.23398 11.4557 3.92347 10.9476 3.7314 10.4287C2.96241 8.39488 3.25425 6.09348 4.5123 4.27273C5.77429 2.44617 7.77476 1.39859 10.0004 1.39859C12.226 1.39859 14.2263 2.44613 15.4883 4.27273C16.7466 6.09348 17.0387 8.39488 16.2678 10.4333Z" fill="#8F9BAB"/>
<path d="M10.0004 4.14918C7.84123 4.14918 6.08435 5.90582 6.08435 8.06528C6.08435 10.2247 7.84099 11.9814 10.0004 11.9814C12.1599 11.9814 13.9165 10.2247 13.9165 8.06528C13.9165 5.90605 12.1597 4.14918 10.0004 4.14918ZM10.0004 10.5827C8.61232 10.5827 7.48294 9.45336 7.48294 8.06524C7.48294 6.67711 8.61232 5.54773 10.0004 5.54773C11.3886 5.54773 12.5179 6.67711 12.5179 8.06524C12.5179 9.45336 11.3886 10.5827 10.0004 10.5827Z" fill="#8F9BAB"/>
</svg>
