<svg width="16" height="16" viewBox="0 0 16 16" fill="none" xmlns="http://www.w3.org/2000/svg">
<path d="M8.002 0H7.998C3.587 0 0 3.588 0 8C0 9.75 0.564 11.372 1.523 12.689L0.526 15.661L3.601 14.678C4.866 15.516 6.375 16 8.002 16C12.413 16 16 12.411 16 8C16 3.589 12.413 0 8.002 0Z" fill="#4CAF50"/>
<path d="M12.6569 11.297C12.4639 11.842 11.6979 12.294 11.0869 12.426C10.6689 12.515 10.1229 12.586 8.28493 11.824C5.93393 10.85 4.41993 8.46099 4.30193 8.30599C4.18893 8.15099 3.35193 7.04099 3.35193 5.89299C3.35193 4.74499 3.93493 4.18599 4.16993 3.94599C4.36293 3.74899 4.68193 3.65899 4.98793 3.65899C5.08693 3.65899 5.17593 3.66399 5.25593 3.66799C5.49093 3.67799 5.60893 3.69199 5.76393 4.06299C5.95693 4.52799 6.42693 5.67599 6.48293 5.79399C6.53993 5.91199 6.59693 6.07199 6.51693 6.22699C6.44193 6.38699 6.37593 6.45799 6.25793 6.59399C6.13993 6.72999 6.02793 6.83399 5.90993 6.97999C5.80193 7.10699 5.67993 7.24299 5.81593 7.47799C5.95193 7.70799 6.42193 8.47499 7.11393 9.09099C8.00693 9.88599 8.73093 10.14 8.98993 10.248C9.18293 10.328 9.41293 10.309 9.55393 10.159C9.73293 9.96599 9.95393 9.64599 10.1789 9.33099C10.3389 9.10499 10.5409 9.07699 10.7529 9.15699C10.9689 9.23199 12.1119 9.79699 12.3469 9.91399C12.5819 10.032 12.7369 10.088 12.7939 10.187C12.8499 10.286 12.8499 10.751 12.6569 11.297Z" fill="#FAFAFA"/>
</svg>
